PathFileType	4	(X/Y/Z)	/tmp/tmpjnq7zxqp/Me/MarkerData/jogging03_segment_0.trc
DataRate	CameraRate	NumFrames	NumMarkers	Units	OrigDataRate	OrigDataStartFrame	OrigNumFrames
100.092	100.092	9	39	m	100.092	135	1086
Frame#	Time	C7			CLAV			LANK			LASI			LBHD			LELB			LFHD			LFIN			LFRM			LHEE			LKNE			LPSI			LSHO			LTHI			LTIB			LTOE			LUPA			LWRA			LWRB			RANK			RASI			RBAK			RBHD			RELB			RFHD			RFIN			RFRM			RHEE			RKNE			RPSI			RSHO			RTHI			RTIB			RTOE			RUPA			RWRA			RWRB			STRN			T10		
		X1	Y1	Z1	X2	Y2	Z2	X3	Y3	Z3	X4	Y4	Z4	X5	Y5	Z5	X6	Y6	Z6	X7	Y7	Z7	X8	Y8	Z8	X9	Y9	Z9	X10	Y10	Z10	X11	Y11	Z11	X12	Y12	Z12	X13	Y13	Z13	X14	Y14	Z14	X15	Y15	Z15	X16	Y16	Z16	X17	Y17	Z17	X18	Y18	Z18	X19	Y19	Z19	X20	Y20	Z20	X21	Y21	Z21	X22	Y22	Z22	X23	Y23	Z23	X24	Y24	Z24	X25	Y25	Z25	X26	Y26	Z26	X27	Y27	Z27	X28	Y28	Z28	X29	Y29	Z29	X30	Y30	Z30	X31	Y31	Z31	X32	Y32	Z32	X33	Y33	Z33	X34	Y34	Z34	X35	Y35	Z35	X36	Y36	Z36	X37	Y37	Z37	X38	Y38	Z38	X39	Y39	Z39

136	1.34876	-0.186374	1.40088	0.0281871	-0.346117	1.30694	0.0303312	-0.0648469	0.25694	0.152389	-0.241757	0.919752	0.210263	-0.285228	1.53855	0.108317	-0.146716	1.09973	0.348705	-0.397837	1.59823	0.0726464	-0.376653	0.942087	0.206067	-0.210442	0.976435	0.277968	0.0078905	0.283293	0.0999003	-0.420629	0.444833	0.15423	-0.0899539	0.939531	0.100945	-0.264087	1.38852	0.20407	-0.366237	0.619682	0.198902	-0.195328	0.333973	0.17135	-0.145066	0.101969	0.103248	-0.230107	1.25031	0.313021	-0.282582	0.987128	0.196647	-0.279581	0.928388	0.238521	-0.0358894	0.10263	-0.0462187	-0.214837	0.928225	-0.110606	-0.12732	1.25708	-0.0812454	-0.255553	1.53626	-0.0378167	-0.302471	1.03872	-0.227952	-0.368368	1.58658	-0.0534397	-0.519825	1.19357	-0.033285	-0.367685	1.03514	-0.171698	0.0435142	0.0698714	0.0144469	-0.270891	0.431777	-0.105057	-0.0832011	0.938869	0.0369813	-0.257324	1.3645	-0.14728	-0.238327	0.765207	-0.142049	-0.191093	0.32442	-0.113971	-0.193073	0.0584112	0.00615807	-0.29114	1.12718	-0.219149	-0.418827	1.13895	-0.0549447	-0.479166	1.10004	-0.0662141	-0.363953	1.14293	0.0434377	-0.120726	1.17223	0.0556617
137	1.35875	-0.184399	1.40618	0.0274194	-0.345802	1.31409	0.0340277	-0.084958	0.245674	0.153248	-0.24182	0.927401	0.21031	-0.2848	1.54534	0.110539	-0.133969	1.11176	0.349827	-0.398186	1.60411	0.075636	-0.366809	0.950082	0.215582	-0.198549	0.987021	0.282354	-0.0108103	0.266424	0.100339	-0.428747	0.456109	0.155859	-0.0902674	0.945676	0.100232	-0.258338	1.39557	0.204955	-0.370967	0.630367	0.200355	-0.210334	0.331055	0.172835	-0.176799	0.0971598	0.105352	-0.220084	1.2608	0.315058	-0.273857	0.996402	0.203345	-0.268526	0.938026	0.24561	-0.0177884	0.105343	-0.0463733	-0.216628	0.931883	-0.110152	-0.130881	1.26358	-0.0833818	-0.256305	1.54313	-0.03583	-0.314308	1.04934	-0.225676	-0.369589	1.59252	-0.05068	-0.52375	1.20593	-0.0231155	-0.378082	1.04647	-0.167693	0.0623831	0.0737961	0.0138821	-0.255272	0.433634	-0.101575	-0.0842268	0.945748	0.0364198	-0.261249	1.37302	-0.145198	-0.23656	0.768072	-0.140521	-0.17361	0.327761	-0.111805	-0.173127	0.0583885	0.00626927	-0.301555	1.13746	-0.217023	-0.42402	1.15069	-0.0488592	-0.485169	1.11251	-0.0585259	-0.365585	1.15064	0.0479441	-0.12007	1.1788	0.0522559
138	1.36874	-0.183885	1.41294	0.0270118	-0.345602	1.32198	0.0379231	-0.10595	0.233838	0.153984	-0.241997	0.936073	0.210228	-0.284321	1.55272	0.11334	-0.121746	1.12395	0.35051	-0.398561	1.61057	0.0788279	-0.357558	0.958918	0.22456	-0.187475	0.998117	0.285892	-0.0308756	0.248684	0.100159	-0.435469	0.467253	0.157879	-0.0910596	0.952931	0.0995262	-0.252997	1.40305	0.205792	-0.374823	0.641115	0.201952	-0.225319	0.32777	0.174231	-0.209126	0.0927107	0.107887	-0.210541	1.27152	0.316739	-0.265182	1.00601	0.209432	-0.258126	0.948176	0.252115	-0.000524916	0.108912	-0.0467675	-0.217906	0.936613	-0.109393	-0.134176	1.27069	-0.0850705	-0.257086	1.55046	-0.0335171	-0.325221	1.06036	-0.223345	-0.370782	1.59896	-0.047692	-0.526973	1.2175	-0.012887	-0.38742	1.05775	-0.163562	0.0807824	0.0791878	0.0133794	-0.239876	0.436899	-0.0976012	-0.085634	0.9528	0.0356954	-0.265297	1.38215	-0.142894	-0.234703	0.771567	-0.138809	-0.15673	0.332161	-0.109413	-0.152908	0.0583792	0.00621659	-0.311318	1.14823	-0.2147	-0.428452	1.16227	-0.0429918	-0.490253	1.12425	-0.0506417	-0.367317	1.15895	0.0530347	-0.119863	1.185	0.0484337
139	1.37873	-0.184654	1.42061	0.0271433	-0.345506	1.33041	0.0420298	-0.127842	0.221688	0.154732	-0.241947	0.945565	0.210046	-0.284049	1.56049	0.116223	-0.110138	1.13611	0.350813	-0.398981	1.61742	0.0822164	-0.348934	0.968381	0.233014	-0.176999	1.00931	0.288983	-0.0523843	0.23064	0.0998694	-0.44085	0.477983	0.160253	-0.0923385	0.960936	0.0987671	-0.248058	1.41078	0.206604	-0.377754	0.651636	0.203714	-0.240468	0.324055	0.175564	-0.242091	0.0889962	0.110485	-0.201511	1.28194	0.317518	-0.256968	1.01595	0.214811	-0.248411	0.958603	0.25808	0.0159017	0.113374	-0.0474224	-0.218828	0.942276	-0.108361	-0.137416	1.27835	-0.0869813	-0.257869	1.55818	-0.0309815	-0.335283	1.07162	-0.221015	-0.371988	1.6058	-0.0444583	-0.529486	1.22814	-0.00266672	-0.395857	1.06886	-0.159414	0.0985905	0.0862545	0.0128715	-0.225133	0.441622	-0.0935234	-0.087467	0.960076	0.0348946	-0.269464	1.39167	-0.140411	-0.232733	0.775811	-0.136859	-0.140724	0.337734	-0.107066	-0.132923	0.0584082	0.00611089	-0.320376	1.1593	-0.212251	-0.432195	1.17333	-0.0371882	-0.494382	1.13518	-0.0426016	-0.369105	1.16778	0.0585236	-0.120168	1.19095	0.044345
140	1.38872	-0.185837	1.42853	0.0277186	-0.345456	1.33915	0.0462255	-0.150471	0.2095	0.155645	-0.24197	0.955394	0.209745	-0.284073	1.56841	0.118986	-0.0992139	1.14806	0.350717	-0.399462	1.62449	0.085805	-0.340967	0.978236	0.240944	-0.166948	1.02025	0.291969	-0.0752123	0.212621	0.0999149	-0.444881	0.488046	0.162971	-0.0939677	0.969354	0.0980717	-0.243606	1.41861	0.207461	-0.379815	0.66178	0.205537	-0.255637	0.319937	0.177277	-0.275394	0.0862894	0.112862	-0.192994	1.29242	0.318405	-0.249523	1.02605	0.219829	-0.239546	0.969197	0.263409	0.0314484	0.118848	-0.048305	-0.21972	0.948622	-0.107122	-0.140926	1.28642	-0.0892722	-0.258664	1.56612	-0.0282263	-0.34458	1.08297	-0.218716	-0.373216	1.61292	-0.0410106	-0.53135	1.23776	0.00750929	-0.403276	1.07979	-0.155272	0.115553	0.0948513	0.0122005	-0.211282	0.447594	-0.0897666	-0.0897622	0.967788	0.0340885	-0.273513	1.40141	-0.137555	-0.230936	0.780691	-0.134711	-0.125584	0.344475	-0.104958	-0.113052	0.0582606	0.00606437	-0.328736	1.17055	-0.209722	-0.435387	1.18322	-0.0306172	-0.497596	1.1452	-0.0345261	-0.370696	1.17715	0.064192	-0.12096	1.19708	0.0401483
141	1.39871	-0.186696	1.43623	0.0285201	-0.345544	1.34802	0.050426	-0.173915	0.197381	0.156778	-0.242933	0.964595	0.209728	-0.284347	1.57629	0.121604	-0.0890142	1.15967	0.350077	-0.399951	1.63156	0.0895783	-0.333681	0.988203	0.248307	-0.157953	1.03129	0.294376	-0.0990714	0.194692	0.100486	-0.447519	0.497242	0.166014	-0.0956534	0.978039	0.0975865	-0.239639	1.42644	0.208401	-0.380895	0.671258	0.207314	-0.27063	0.315495	0.179565	-0.308689	0.0848459	0.114925	-0.184993	1.30275	0.319231	-0.242978	1.03616	0.224491	-0.231505	0.979772	0.268138	0.0460459	0.125214	-0.0491447	-0.221076	0.955292	-0.105778	-0.14484	1.29483	-0.0917621	-0.259533	1.57414	-0.0253005	-0.353106	1.09433	-0.216487	-0.374424	1.62014	-0.0373654	-0.532629	1.24621	0.0176294	-0.409788	1.09041	-0.151256	0.131463	0.104648	0.0113387	-0.198245	0.454423	-0.086487	-0.0923251	0.97578	0.0335076	-0.27753	1.41112	-0.134434	-0.229859	0.785879	-0.13264	-0.111209	0.352222	-0.103197	-0.0933654	0.0582486	0.00605331	-0.336452	1.18183	-0.20716	-0.437989	1.19235	-0.0241472	-0.500123	1.15416	-0.0265449	-0.371731	1.18721	0.0699825	-0.122112	1.20383	0.0360299
142	1.4087	-0.187069	1.44355	0.0293414	-0.345784	1.35688	0.054585	-0.198047	0.185463	0.15828	-0.243967	0.973382	0.210015	-0.284422	1.58389	0.124612	-0.0796561	1.17081	0.348981	-0.400425	1.63847	0.0935387	-0.32711	0.997995	0.255064	-0.149766	1.04187	0.29625	-0.123759	0.176995	0.101778	-0.448816	0.505388	0.169291	-0.0972479	0.987002	0.097422	-0.236057	1.43414	0.209395	-0.381078	0.679878	0.209194	-0.285353	0.310798	0.182212	-0.34171	0.084711	0.116388	-0.177798	1.31244	0.31911	-0.237389	1.0461	0.228738	-0.224235	0.990074	0.272249	0.059544	0.132109	-0.0499401	-0.223449	0.961866	-0.104452	-0.149089	1.30351	-0.0942165	-0.260427	1.58205	-0.0222428	-0.360717	1.10559	-0.214284	-0.375643	1.62726	-0.0335439	-0.533425	1.25336	0.0277036	-0.415536	1.10057	-0.147408	0.145892	0.114972	0.010427	-0.185875	0.461745	-0.0835703	-0.0950027	0.98403	0.0332344	-0.281562	1.42062	-0.131137	-0.229318	0.7914	-0.130719	-0.0975526	0.360751	-0.101818	-0.0737365	0.0581582	0.00583453	-0.343548	1.19303	-0.204518	-0.440041	1.20087	-0.017924	-0.502159	1.16195	-0.0187516	-0.372791	1.19727	0.0756563	-0.123402	1.2115	0.0322201
143	1.41869	-0.187187	1.45049	0.0300776	-0.346085	1.36564	0.0586666	-0.222539	0.173972	0.160301	-0.245548	0.981731	0.210119	-0.284045	1.59105	0.128446	-0.0712052	1.18133	0.347661	-0.400845	1.64506	0.0976555	-0.321352	1.00741	0.261217	-0.142579	1.05196	0.297656	-0.148952	0.159812	0.103926	-0.448911	0.512226	0.172659	-0.0995518	0.996146	0.0973998	-0.232833	1.44164	0.210401	-0.380452	0.687418	0.211299	-0.299744	0.305991	0.185059	-0.373739	0.0855284	0.117076	-0.171377	1.32161	0.318669	-0.232284	1.05553	0.23252	-0.217763	0.999891	0.275732	0.0719048	0.139143	-0.0506112	-0.227366	0.967925	-0.10327	-0.15354	1.3123	-0.0964743	-0.26132	1.58963	-0.0191066	-0.367463	1.11658	-0.212082	-0.376855	1.63413	-0.0296013	-0.533788	1.25907	0.0377628	-0.42062	1.11007	-0.143724	0.159156	0.126005	0.00974974	-0.17424	0.469408	-0.0809313	-0.0977501	0.992478	0.0333615	-0.285508	1.42978	-0.127605	-0.229362	0.797107	-0.129077	-0.0845358	0.36978	-0.100763	-0.0535494	0.0577026	0.00554964	-0.350025	1.204	-0.201826	-0.441737	1.20817	-0.0115061	-0.503733	1.16853	-0.0112729	-0.373756	1.20692	0.0806919	-0.124715	1.21995	0.0290139
144	1.42868	-0.187337	1.45708	0.03076	-0.346418	1.37416	0.0625925	-0.247288	0.163041	0.162837	-0.248172	0.98947	0.209685	-0.283744	1.59768	0.13226	-0.063677	1.19106	0.346231	-0.401175	1.65113	0.101891	-0.316515	1.01637	0.266847	-0.136435	1.0613	0.298629	-0.174535	0.143416	0.106906	-0.447934	0.517656	0.175924	-0.102731	1.00512	0.0976679	-0.230164	1.44879	0.211376	-0.379089	0.693651	0.21367	-0.314133	0.300999	0.188095	-0.404662	0.0878958	0.117146	-0.16564	1.3302	0.318285	-0.227853	1.06428	0.23588	-0.212199	1.00902	0.278631	0.0831761	0.146234	-0.0510479	-0.231928	0.97362	-0.102067	-0.158073	1.32091	-0.0983876	-0.262181	1.59674	-0.0159388	-0.373476	1.12703	-0.209852	-0.378021	1.64057	-0.0255565	-0.533743	1.26322	0.0478155	-0.425112	1.11878	-0.140212	0.170899	0.137462	0.00940901	-0.163502	0.477308	-0.0786444	-0.101027	1.00096	0.0339886	-0.289231	1.43841	-0.123851	-0.229699	0.802824	-0.127576	-0.0723887	0.379052	-0.099981	-0.0336245	0.0571709	0.00516828	-0.355909	1.21453	-0.199117	-0.443063	1.2136	-0.00525624	-0.504917	1.17386	-0.00416627	-0.37423	1.21598	0.0847092	-0.126226	1.2287	0.0265292
